<svg width="196" height="30" fill="none" xmlns="http://www.w3.org/2000/svg"><path d="M186.088 13.176v4.084h2.872v4.052c.009.362-.01.753-.073 1.065-.114.756-.832 2.043-2.871 2.043-2.026 0-2.732-1.287-2.854-2.043a6.875 6.875 0 0 1-.073-1.065V8.514c0-.452.03-.948.126-1.323.139-.682.744-2.027 2.786-2.027 2.143 0 2.678 1.418 2.801 2.027.081.404.085 1.08.085 1.08v1.554h7.057v-.918s.032-.959-.054-1.854c-.53-5.252-4.861-6.914-9.827-6.914-4.975 0-9.218 1.677-9.836 6.914-.055.48-.141 1.34-.141 1.854v11.772c0 .513.017.91.112 1.847.46 5.108 4.89 6.919 9.845 6.919 4.986 0 9.386-1.81 9.854-6.92.083-.936.092-1.333.103-1.846v-7.503h-9.912ZM137.432.892h-7.086v20.715c.011.361 0 .767-.063 1.064-.148.695-.737 2.034-2.692 2.034-1.93 0-2.535-1.338-2.672-2.034-.071-.297-.08-.703-.071-1.064V.892h-7.084v20.072a23.61 23.61 0 0 0 .062 1.852c.489 5.23 4.614 6.928 9.765 6.928 5.161 0 9.283-1.698 9.781-6.928.039-.277.091-1.334.06-1.852V.892Zm-65.111 0L68.786 22.78 65.253.892H53.822l-.606 28.002h7.003l.19-25.922 4.818 25.922h7.105l4.822-25.922.19 25.922h7.021L83.74.892H72.32Zm-42.323 0-5.19 28.002h7.569l3.91-25.922 3.818 25.922h7.517L42.452.892H29.999Zm132.2 22.545L155.599.892h-10.398v27.71h6.879l-.399-23.266 7.086 23.266h9.972V.892h-6.923l.382 22.545ZM98.573 8.18a3.756 3.756 0 0 1-.024-1.448c.2-.896.803-1.874 2.539-1.874 1.619 0 2.568 1.008 2.568 2.521v1.712h6.908V7.14c0-6.034-5.413-6.981-9.332-6.981-4.936 0-8.966 1.625-9.703 6.165-.194 1.236-.242 2.332.067 3.732 1.2 5.66 11.062 7.302 12.493 10.882.252.678.18 1.543.051 2.052-.214.932-.841 1.87-2.7 1.87-1.744 0-2.793-1.003-2.793-2.512l-.003-2.688H91.21v2.136c0 6.19 4.851 8.058 10.077 8.058 5.004 0 9.137-1.71 9.8-6.342.317-2.393.078-3.953-.049-4.54C109.88 13.167 99.37 11.42 98.574 8.18ZM7.448 8.11c-.136-.564-.104-1.16-.029-1.47.192-.892.798-1.887 2.565-1.887 1.639 0 2.604 1.018 2.604 2.543V9.03h6.989V7.062C19.577.971 14.08 0 10.119 0 5.143 0 1.077 1.651.332 6.224.128 7.479.093 8.583.387 9.998 1.601 15.723 11.56 17.378 13.007 21c.272.673.19 1.538.056 2.067-.23.941-.863 1.892-2.737 1.892-1.75 0-2.797-1.02-2.797-2.55l-.01-2.694H0v2.14C0 28.118 4.92 30 10.186 30c5.063 0 9.22-1.724 9.898-6.41.337-2.416.085-3.988-.03-4.584C18.873 13.13 8.246 11.39 7.449 8.111Z" fill="#fff"/></svg>