<svg width="157" height="37" fill="none" xmlns="http://www.w3.org/2000/svg"><path d="M17.14 12.252h18.492C33.114 5.114 26.322 0 18.336 0c-.355 0-.705.01-1.053.031L15.306 10.45c-.22 1.25.367 1.802 1.837 1.802h-.002Z" fill="#fff"/><path d="m6.345 14.166 5.689-13.049C5.069 3.667.18 10.297 0 17.887c-.096 20.927 28.222 26.098 35.595 6.729H14.867c-7.823 0-11.2-4.268-8.52-10.448l-.002-.002Z" fill="#fff"/><path d="M15.304 21.156h21.164a18.455 18.455 0 0 0 .015-5.444H16.406c-3.342 0-4.37-1.251-3.563-4.377L15.77.184c-.715.1-1.415.24-2.1.42L9.133 13.469c-1.653 4.709.772 7.69 6.17 7.69v-.003Zm27.428-1.073c0-7.646 5.65-13.416 13.17-13.416 4.77 0 8.548 2.795 10.124 7.168l-5.282 1.507c-.806-2.351-2.789-3.675-5.355-3.675-4.365 0-7.52 3.345-7.52 7.937 0 3.602 2.311 5.992 6.053 5.992 2.53 0 4.806-1.36 5.943-3.676l4.658 2.352c-2.2 3.896-6.382 6.394-11.116 6.394-6.383 0-10.675-4.556-10.675-10.585v.002Zm22.894 2.058c0-5.953 4.513-10.842 9.979-10.842 2.567 0 4.475.882 5.723 2.684l.955-2.168h3.998l-1.945 18.377h-4.731l.256-2.168c-1.65 1.8-3.706 2.683-6.274 2.683-4.549 0-7.961-3.712-7.961-8.564v-.002Zm15.004-1.8c0-2.683-1.872-4.52-4.623-4.52-3.192 0-5.614 2.534-5.614 5.842 0 2.683 1.797 4.521 4.549 4.521 3.228 0 5.686-2.535 5.686-5.843h.002Zm25.387 3.676.807-7.645h-3.192l.477-4.557h3.192l.404-3.713 4.88-1.432-.55 5.145h4.146l-.478 4.556h-4.146l-.806 7.646c-.146 1.507.66 1.948 2.494 1.948.405 0 .956-.038 1.468-.073l-.477 4.3c-.917.11-1.724.146-2.458.146-4.769 0-6.199-2.095-5.759-6.321h-.002Zm10.75 6.173 1.945-18.377h3.998l.513 2.167c1.43-1.69 3.706-2.534 5.832-2.534l-.513 4.923h-.771c-2.606 0-4.991 1.509-5.32 4.706l-.955 9.114h-4.731.002Zm11.592-8.122c0-5.99 4.769-10.769 10.749-10.769 5.063 0 8.732 3.713 8.732 8.637 0 5.991-4.769 10.77-10.749 10.77-5.064 0-8.732-3.713-8.732-8.638Zm14.71-1.727c0-2.61-1.762-4.41-4.44-4.41-3.118 0-5.503 2.462-5.503 5.734 0 2.61 1.761 4.41 4.44 4.41 3.118 0 5.503-2.461 5.503-5.734Zm5.872 9.849 2.312-22.088 4.879-1.432-2.457 23.521h-4.732l-.002-.001Zm-62.81-4.555 4.807-1.616c.623 1.58 1.761 2.389 3.447 2.389 1.687 0 2.569-.625 2.569-1.506 0-2.646-8.694-1.432-8.694-7.13 0-3.747 3.228-6.467 7.63-6.467 3.12 0 5.466 1.838 6.421 5.109l-4.659 1.323c-.367-1.47-1.173-2.205-2.422-2.205s-2.09.698-2.09 1.581c0 2.61 8.804 1.065 8.804 7.204 0 3.787-3.264 6.395-8.144 6.395-3.852 0-6.458-1.727-7.667-5.073l-.002-.004Z" fill="#fff"/></svg>