<svg width="50" height="50" fill="none" xmlns="http://www.w3.org/2000/svg"><circle cx="25" cy="25" r="25" fill="#F5F6F9"/><path fill-rule="evenodd" clip-rule="evenodd" d="m17.446 18.805 5.41 5.438a3.034 3.034 0 0 0 4.289 0l5.41-5.438a.123.123 0 0 0-.017-.19A3.382 3.382 0 0 0 30.59 18H19.41c-.724 0-1.395.23-1.947.616a.124.124 0 0 0-.016.19ZM16 21.425c0-.553.133-1.097.39-1.586a.124.124 0 0 1 .147-.06.123.123 0 0 1 .049.03l5.34 5.367a4.337 4.337 0 0 0 6.147 0l5.341-5.367a.123.123 0 0 1 .197.03c.256.49.39 1.034.389 1.586v7.15A3.42 3.42 0 0 1 30.591 32H19.41A3.42 3.42 0 0 1 16 28.575v-7.15Z" fill="#181A1E"/></svg>