<svg width="31" height="17" fill="none" xmlns="http://www.w3.org/2000/svg"><path d="M8.548 11.66c-.03-.091-.123-.149-.277-.172l-2.582-.362L4.53 8.87c-.072-.136-.156-.203-.252-.203-.1 0-.183.067-.252.203L2.87 11.126l-2.582.362c-.154.023-.247.08-.278.171-.03.091.009.19.118.295l1.873 1.756-.443 2.48c-.017.108-.006.193.031.255.038.06.096.091.175.091.058 0 .127-.02.206-.06l2.31-1.17 2.309 1.17c.079.04.147.06.206.06.079 0 .137-.03.175-.091.037-.062.047-.146.03-.256l-.442-2.48 1.867-1.755c.113-.105.154-.204.123-.295Zm21.642 0c-.031-.091-.124-.149-.278-.172l-2.582-.362-1.157-2.256c-.072-.136-.156-.203-.252-.203-.1 0-.184.067-.252.203l-1.157 2.256-2.583.362c-.154.023-.246.08-.277.171-.031.091.008.19.118.295l1.872 1.756-.442 2.48c-.017.108-.007.193.03.255.039.06.097.091.176.091.058 0 .127-.02.206-.06l2.309-1.17 2.31 1.17c.078.04.147.06.205.06.08 0 .138-.03.175-.091.038-.062.048-.146.03-.256l-.441-2.48 1.867-1.755c.113-.105.154-.204.123-.295ZM19.37 3.593c-.032-.091-.124-.148-.279-.171L16.51 3.06 15.352.803C15.28.668 15.196.6 15.1.6c-.1 0-.183.068-.252.203L13.691 3.06l-2.582.362c-.155.023-.247.08-.278.17-.03.092.008.19.118.296l1.873 1.755-.443 2.48c-.017.109-.007.194.031.255s.096.092.175.092a.47.47 0 0 0 .206-.06l2.31-1.17 2.309 1.17c.078.04.147.06.206.06.078 0 .137-.03.174-.092.038-.061.048-.146.031-.255l-.442-2.48 1.867-1.755c.113-.106.154-.204.123-.295Z" fill="#000"/></svg>